<svg xmlns="http://www.w3.org/2000/svg" width="24.627" height="26.064" viewBox="0 0 24.627 26.064"><defs><style>.a{fill:none;stroke:#fff;stroke-width:1.5px;}.b{fill:#fff;}</style></defs><g transform="translate(2906.513 -970.537)"><path class="a" d="M-2884.749,985.808a51.567,51.567,0,0,1-1.2-6.978l-.043,0a8.252,8.252,0,0,0-8.207-7.547,8.255,8.255,0,0,0-8.207,7.547l-.041,0a51.568,51.568,0,0,1-1.2,6.978,26.053,26.053,0,0,1-2.008,4.6.723.723,0,0,0,.634,1.077h21.644a.724.724,0,0,0,.636-1.077A26.017,26.017,0,0,1-2884.749,985.808Z" transform="translate(0 0)"/><path class="b" d="M-2894.085,982.415a3.361,3.361,0,0,1-3.363,3.361,3.361,3.361,0,0,1-3.36-3.361Z" transform="translate(3.248 10.825)"/></g></svg>